<?xml version="1.0" encoding="UTF-8"?>
<!DOCTYPE svg PUBLIC "-//W3C//DTD SVG 1.1//EN" "http://www.w3.org/Graphics/SVG/1.1/DTD/svg11.dtd">
<svg version="1.1" xmlns="http://www.w3.org/2000/svg" xmlns:xlink="http://www.w3.org/1999/xlink" x="0" y="0" width="28" height="28" viewBox="0, 0, 28, 28">
  <g id="Layer_1" transform="translate(-26.718, 11.272)">
    <path d="M52.718,-11.272 L28.712,-11.272 C27.604,-11.264 26.712,-10.361 26.718,-9.253 L26.718,14.709 C26.712,15.816 27.604,16.72 28.712,16.728 L52.718,16.728 C53.827,16.72 54.721,15.818 54.718,14.709 L54.718,-9.253 C54.721,-10.362 53.827,-11.264 52.718,-11.272 z M35.18,12.728 L31.03,12.728 L31.03,-0.635 L35.186,-0.635 L35.186,12.728 z M33.105,-2.459 C31.776,-2.46 30.699,-3.537 30.699,-4.865 C30.699,-6.195 31.776,-7.272 33.106,-7.272 C34.434,-7.269 35.509,-6.194 35.512,-4.866 C35.513,-4.228 35.26,-3.615 34.809,-3.163 C34.357,-2.712 33.744,-2.459 33.106,-2.46 z M50.737,12.728 L46.587,12.728 L46.587,6.228 C46.587,4.678 46.556,2.684 44.431,2.684 C42.268,2.684 41.937,4.371 41.937,6.115 L41.937,12.728 L37.787,12.728 L37.787,-0.635 L41.768,-0.635 L41.768,1.19 L41.824,1.19 C42.638,-0.197 44.148,-1.025 45.755,-0.966 C49.955,-0.966 50.736,1.803 50.736,5.403 z" fill="#0B66C2"/>
  </g>
</svg>
