<?xml version="1.0" encoding="UTF-8"?>
<!DOCTYPE svg PUBLIC "-//W3C//DTD SVG 1.1//EN" "http://www.w3.org/Graphics/SVG/1.1/DTD/svg11.dtd">
<svg version="1.1" xmlns="http://www.w3.org/2000/svg" xmlns:xlink="http://www.w3.org/1999/xlink" x="0" y="0" width="26.003" height="27.999" viewBox="0, 0, 26.003, 27.999">
  <g id="Layer_1" transform="translate(10.371, 31.576)">
    <path d="M15.627,-22.382 C15.627,-28.457 11.664,-30.238 11.664,-30.238 C7.775,-32.032 -2.553,-32.013 -6.404,-30.238 C-6.404,-30.238 -10.367,-28.457 -10.367,-22.382 C-10.367,-15.151 -10.778,-6.169 -3.797,-4.313 C-1.706,-3.737 0.464,-3.496 2.63,-3.601 C4.334,-3.643 6.012,-4.028 7.563,-4.732 L7.458,-7.038 C5.899,-6.588 4.281,-6.376 2.658,-6.407 C0.147,-6.494 -2.502,-6.682 -2.911,-9.782 C-2.949,-10.07 -2.968,-10.36 -2.967,-10.651 C0.679,-9.808 4.452,-9.666 8.151,-10.232 C11.642,-10.651 14.682,-12.813 15.07,-14.788 C15.466,-17.3 15.653,-19.839 15.63,-22.382 z M10.954,-14.557 L8.054,-14.557 L8.054,-21.695 C8.054,-24.801 4.073,-24.92 4.073,-21.264 L4.073,-17.358 L1.189,-17.358 L1.189,-21.265 C1.189,-24.921 -2.792,-24.803 -2.792,-21.696 L-2.792,-14.559 L-5.697,-14.559 C-5.697,-22.19 -6.02,-23.803 -4.552,-25.496 C-3.705,-26.423 -2.485,-26.919 -1.232,-26.845 C0.022,-26.771 1.175,-26.135 1.906,-25.115 L2.628,-23.896 L3.35,-25.115 C4.082,-26.135 5.235,-26.771 6.488,-26.844 C7.742,-26.918 8.962,-26.423 9.808,-25.496 C11.283,-23.79 10.953,-22.183 10.953,-14.559 z" fill="#6364FF"/>
  </g>
</svg>
