<?xml version="1.0" encoding="UTF-8"?>
<!DOCTYPE svg PUBLIC "-//W3C//DTD SVG 1.1//EN" "http://www.w3.org/Graphics/SVG/1.1/DTD/svg11.dtd">
<svg version="1.1" xmlns="http://www.w3.org/2000/svg" xmlns:xlink="http://www.w3.org/1999/xlink" x="0" y="0" width="657.64" height="657.64" viewBox="0, 0, 657.64, 657.64">
  <g id="Layer_1" transform="translate(-962.525, 337.026)">
    <path d="M1291.345,-337.026 Q1202.37,-337.026 1125.001,-292.152 Q1050.726,-248.051 1007.399,-173.776 Q962.525,-97.181 962.525,-7.819 Q962.525,81.543 1007.399,158.138 Q1050.726,232.413 1125.001,275.74 Q1202.37,320.614 1291.345,320.614 Q1380.32,320.614 1457.689,275.74 Q1531.964,232.413 1575.291,158.138 Q1620.165,81.543 1620.165,-7.819 Q1620.165,-97.181 1575.291,-173.776 Q1531.964,-248.051 1457.689,-292.152 Q1380.32,-337.026 1291.345,-337.026 z M1238.734,-136.639 L1325.387,-136.639 Q1353.24,-136.639 1376.838,-123.099 Q1400.436,-109.56 1414.362,-86.736 Q1428.289,-63.912 1428.289,-36.446 Q1428.289,-8.98 1414.362,13.844 Q1400.436,36.668 1376.838,50.208 Q1353.24,63.748 1325.387,63.748 L1265.039,63.748 L1179.159,145.759 L1179.159,-78.612 Q1179.159,-102.597 1196.567,-119.618 Q1213.975,-136.639 1238.734,-136.639 z" fill="#C735B8"/>
  </g>
</svg>
